<svg width="76" height="76" viewBox="0 0 76 76" fill="none" xmlns="http://www.w3.org/2000/svg">
<path d="M58.1875 0H17.8125C7.97493 0 0 7.97493 0 17.8125V58.1875C0 68.0251 7.97493 76 17.8125 76H58.1875C68.0251 76 76 68.0251 76 58.1875V17.8125C76 7.97493 68.0251 0 58.1875 0Z" fill="url(#paint0_radial_113_170)"/>
<path d="M58.1875 0H17.8125C7.97493 0 0 7.97493 0 17.8125V58.1875C0 68.0251 7.97493 76 17.8125 76H58.1875C68.0251 76 76 68.0251 76 58.1875V17.8125C76 7.97493 68.0251 0 58.1875 0Z" fill="url(#paint1_radial_113_170)"/>
<path d="M38.0027 8.3125C29.9401 8.3125 28.9281 8.34783 25.7616 8.49181C22.6011 8.63669 20.4437 9.13692 18.5562 9.87109C16.6033 10.6293 14.9471 11.6437 13.297 13.2944C11.6455 14.9447 10.6311 16.601 9.8705 18.5529C9.13425 20.441 8.63342 22.5993 8.49122 25.7584C8.34961 28.9251 8.3125 29.9375 8.3125 38.0003C8.3125 46.0631 8.34813 47.0719 8.49181 50.2384C8.63728 53.3989 9.13752 55.5563 9.87109 57.4438C10.6299 59.3967 11.6443 61.0529 13.295 62.703C14.9447 64.3545 16.601 65.3713 18.5523 66.1295C20.4413 66.8637 22.599 67.3639 25.759 67.5088C28.9257 67.6528 29.9369 67.6881 37.9991 67.6881C46.0625 67.6881 47.0713 67.6528 50.2378 67.5088C53.3983 67.3639 55.5581 66.8637 57.4471 66.1295C59.399 65.3713 61.0529 64.3545 62.7024 62.703C64.3539 61.0529 65.368 59.3967 66.1289 57.4447C66.8586 55.5563 67.3597 53.3983 67.5082 50.239C67.6504 47.0725 67.6875 46.0631 67.6875 38.0003C67.6875 29.9375 67.6504 28.9257 67.5082 25.759C67.3597 22.5984 66.8586 20.4413 66.1289 18.5538C65.368 16.601 64.3539 14.9447 62.7024 13.2944C61.0512 11.6431 59.3996 10.6287 57.4453 9.87139C55.5527 9.13692 53.3942 8.63639 50.2336 8.49181C47.0669 8.34783 46.0587 8.3125 37.9935 8.3125H38.0027ZM35.3394 13.6625C36.13 13.6613 37.012 13.6625 38.0027 13.6625C45.9295 13.6625 46.8688 13.691 49.9991 13.8332C52.8936 13.9656 54.4647 14.4492 55.5112 14.8556C56.8967 15.3936 57.8844 16.0369 58.9229 17.0763C59.9619 18.1153 60.605 19.1048 61.1444 20.4903C61.5508 21.5353 62.035 23.1064 62.1668 26.0009C62.309 29.1306 62.3399 30.0705 62.3399 37.9935C62.3399 45.9165 62.309 46.8567 62.1668 49.986C62.0344 52.8806 61.5508 54.4516 61.1444 55.4969C60.6064 56.8824 59.9619 57.869 58.9229 58.9074C57.8838 59.9465 56.8973 60.5895 55.5112 61.1278C54.4659 61.536 52.8936 62.0184 49.9991 62.1508C46.8694 62.293 45.9295 62.3239 38.0027 62.3239C30.0755 62.3239 29.1359 62.293 26.0065 62.1508C23.112 62.0172 21.541 61.5336 20.4936 61.1272C19.1084 60.5889 18.1186 59.9459 17.0795 58.9068C16.0405 57.8678 15.3974 56.8807 14.858 55.4945C14.4516 54.4492 13.9674 52.8782 13.8356 49.9837C13.6934 46.854 13.6649 45.9141 13.6649 37.986C13.6649 30.058 13.6934 29.1231 13.8356 25.9935C13.968 23.099 14.4516 21.5279 14.858 20.4814C15.3962 19.0959 16.0405 18.1064 17.0798 17.0673C18.1192 16.0283 19.1084 15.385 20.4939 14.8458C21.5404 14.4376 23.112 13.9552 26.0065 13.8222C28.7452 13.6984 29.8065 13.6613 35.3394 13.6551V13.6625ZM53.8499 18.5918C51.8831 18.5918 50.2874 20.186 50.2874 22.1531C50.2874 24.1199 51.8831 25.7156 53.8499 25.7156C55.8167 25.7156 57.4124 24.1199 57.4124 22.1531C57.4124 20.1863 55.8167 18.5906 53.8499 18.5906V18.5918ZM38.0027 22.7543C29.5833 22.7543 22.757 29.5806 22.757 38.0003C22.757 46.42 29.5833 53.243 38.0027 53.243C46.4223 53.243 53.2463 46.42 53.2463 38.0003C53.2463 29.5809 46.4218 22.7543 38.0021 22.7543H38.0027ZM38.0027 28.1043C43.4678 28.1043 47.8987 32.5345 47.8987 38.0003C47.8987 43.4655 43.4678 47.8963 38.0027 47.8963C32.5375 47.8963 28.1069 43.4655 28.1069 38.0003C28.1069 32.5345 32.5372 28.1043 38.0027 28.1043Z" fill="white"/>
<defs>
<radialGradient id="paint0_radial_113_170" cx="0" cy="0" r="1" gradientUnits="userSpaceOnUse" gradientTransform="translate(20.1875 81.8535) rotate(-90) scale(75.3216 70.0551)">
<stop stop-color="#FFDD55"/>
<stop offset="0.1" stop-color="#FFDD55"/>
<stop offset="0.5" stop-color="#FF543E"/>
<stop offset="1" stop-color="#C837AB"/>
</radialGradient>
<radialGradient id="paint1_radial_113_170" cx="0" cy="0" r="1" gradientUnits="userSpaceOnUse" gradientTransform="translate(-12.7303 5.47467) rotate(78.681) scale(33.6692 138.785)">
<stop stop-color="#3771C8"/>
<stop offset="0.128" stop-color="#3771C8"/>
<stop offset="1" stop-color="#6600FF" stop-opacity="0"/>
</radialGradient>
</defs>
</svg>
