<svg width="148" height="61" viewBox="0 0 148 61" fill="none" xmlns="http://www.w3.org/2000/svg">
<path d="M23.424 60.096L22.56 59.808C22.496 60 22.336 60.064 22.08 60C21.888 60 21.728 59.936 21.6 59.808C21.28 59.296 20.928 59.072 20.544 59.136C20.16 59.264 19.648 59.2 19.008 58.944H18.912C18.72 58.944 18.496 58.976 18.24 59.04C18.048 59.168 17.856 59.2 17.664 59.136L16.992 58.56C16.992 58.624 16.928 58.656 16.8 58.656C16.608 58.656 16.416 58.624 16.224 58.56C16.032 58.496 15.968 58.432 16.032 58.368L14.4 57.504L14.208 57.6L13.152 56.448C13.088 56.512 13.024 56.544 12.96 56.544C12.832 56.544 12.704 56.448 12.576 56.256C12.448 56.128 12.352 56.064 12.288 56.064C11.904 55.744 11.456 55.424 10.944 55.104C10.496 54.848 10.048 54.56 9.60004 54.24C9.53604 54.176 9.50404 54.048 9.50404 53.856C9.50404 53.728 9.44004 53.632 9.31204 53.568C9.12004 53.376 8.89604 53.184 8.64004 52.992C8.38404 52.8 8.22404 52.576 8.16004 52.32L7.77604 52.416C7.39204 51.712 6.94404 51.072 6.43204 50.496C5.92004 49.92 5.69604 49.152 5.76004 48.192H5.56804L4.32004 47.712V47.424C4.25604 47.424 4.16004 47.456 4.03204 47.52C3.90404 47.52 3.74404 47.488 3.55204 47.424C3.10404 47.232 2.68804 47.008 2.30404 46.752C1.92004 46.432 1.63204 46.048 1.44004 45.6C1.37604 45.408 1.28004 45.312 1.15204 45.312C1.08804 45.312 1.02404 45.28 0.960039 45.216C0.832039 44.896 0.640039 44.608 0.384039 44.352C0.128039 44.096 0.0320391 43.776 0.0960391 43.392L0.384039 40.992C0.896039 40.416 1.28004 40.128 1.53604 40.128C1.79204 40.128 1.92004 40.416 1.92004 40.992L1.34404 41.952L1.44004 43.104C1.56804 43.232 1.76004 43.296 2.01604 43.296C2.27204 43.296 2.46404 43.264 2.59204 43.2L2.49604 43.776L2.88004 44.448L2.97604 44.256L3.55204 44.448L4.03204 45.12C4.16004 44.864 4.28804 44.864 4.41604 45.12C4.54404 45.312 4.60804 45.408 4.60804 45.408L5.08804 45.024C5.02404 44.704 4.96004 44.384 4.89604 44.064C4.83204 43.68 4.80004 43.328 4.80004 43.008C4.80004 42.56 4.83204 42.24 4.89604 42.048C5.08804 41.344 5.15204 40.8 5.08804 40.416C5.08804 40.416 5.21604 40.192 5.47204 39.744C5.72804 39.232 5.98404 38.912 6.24004 38.784L7.00804 38.304L7.20004 38.592C7.13604 38.656 7.00804 38.848 6.81604 39.168C6.62404 39.488 6.46404 39.712 6.33604 39.84C5.82404 40.928 5.63204 42.016 5.76004 43.104C5.76004 43.168 5.76004 43.264 5.76004 43.392C5.82404 43.456 5.82404 43.584 5.76004 43.776V45.12C5.88804 45.184 5.95204 45.44 5.95204 45.888C5.95204 46.272 6.01604 46.432 6.14404 46.368C6.46404 46.304 6.72004 46.4 6.91204 46.656C7.16804 46.848 7.36004 46.752 7.48804 46.368L8.16004 47.136H9.12004C9.05604 47.264 9.21604 47.392 9.60004 47.52C10.048 47.584 10.496 47.616 10.944 47.616C11.392 47.616 11.616 47.616 11.616 47.616L12.192 48.096C12.192 48.032 12.288 48.096 12.48 48.288H12.576C12.768 48.288 12.96 48.224 13.152 48.096C13.408 47.968 13.6 47.904 13.728 47.904C14.048 47.968 14.368 48.096 14.688 48.288C15.072 48.48 15.36 48.48 15.552 48.288L16.32 48.576L17.184 48.096C17.312 48.224 17.568 48.352 17.952 48.48C18.08 48.544 18.272 48.576 18.528 48.576C19.104 48.576 19.52 48.448 19.776 48.192L20.16 48.672C21.056 48.608 21.952 48.608 22.848 48.672C23.808 48.672 24.704 48.672 25.536 48.672C26.24 48.672 26.912 48.672 27.552 48.672C28.256 48.608 28.928 48.544 29.568 48.48C29.76 48.48 29.92 48.48 30.048 48.48C30.176 48.416 30.272 48.384 30.336 48.384C30.784 48.384 31.296 48.256 31.872 48C32.448 47.744 32.928 47.616 33.312 47.616C33.44 47.616 33.728 47.52 34.176 47.328C34.688 47.072 34.848 47.232 34.656 47.808L33.696 48.288L33.408 48.192C33.344 48.256 33.056 48.416 32.544 48.672C32.096 48.864 31.84 48.896 31.776 48.768L29.76 49.056C29.504 49.12 29.12 49.184 28.608 49.248C28.096 49.312 27.84 49.312 27.84 49.248L26.976 49.44C26.976 49.376 26.912 49.344 26.784 49.344C26.528 49.344 26.144 49.44 25.632 49.632C25.184 49.824 24.928 49.888 24.864 49.824C24.8 49.696 24.48 49.696 23.904 49.824C23.392 49.888 22.88 49.92 22.368 49.92C21.6 49.92 21.184 49.792 21.12 49.536L20.352 49.824C20.48 49.696 20.416 49.632 20.16 49.632C19.968 49.568 19.808 49.568 19.68 49.632L19.584 50.112C19.456 50.176 19.328 50.176 19.2 50.112C19.072 50.048 18.944 49.984 18.816 49.92C18.432 49.728 17.824 49.632 16.992 49.632C16.16 49.632 15.36 49.6 14.592 49.536C13.824 49.472 13.344 49.312 13.152 49.056L12.384 49.44C12.128 49.44 11.744 49.408 11.232 49.344C10.784 49.216 10.432 49.12 10.176 49.056C9.72804 48.928 9.21604 48.8 8.64004 48.672C8.12804 48.544 7.61604 48.512 7.10404 48.576L7.58404 49.344V49.536C8.03204 49.792 8.38404 50.208 8.64004 50.784C8.96004 51.296 9.44004 51.488 10.08 51.36L10.368 52.608L11.136 53.088C11.2 53.024 11.264 52.992 11.328 52.992C11.52 52.992 11.84 53.12 12.288 53.376C12.736 53.632 13.088 53.824 13.344 53.952L13.632 53.76L14.112 54.624C14.176 54.56 14.24 54.528 14.304 54.528C14.496 54.528 14.72 54.592 14.976 54.72C15.232 54.848 15.392 54.88 15.456 54.816L16.128 55.008L16.8 54.816C17.056 55.2 17.216 55.488 17.28 55.68C17.344 55.872 17.44 56 17.568 56.064C17.888 56.192 17.888 56.288 17.568 56.352C17.312 56.416 17.184 56.512 17.184 56.64L17.28 56.832H18.144C18.144 56.64 18.368 56.48 18.816 56.352C19.328 56.288 19.84 56.256 20.352 56.256C21.12 56.256 21.568 56.32 21.696 56.448C21.952 56.576 22.016 56.576 21.888 56.448L22.752 56.352L23.328 56.832C23.456 56.64 23.584 56.544 23.712 56.544C23.904 56.544 24.064 56.576 24.192 56.64C24.384 56.768 24.48 56.832 24.48 56.832C24.608 56.896 24.736 56.768 24.864 56.448C25.056 56.192 25.28 56.096 25.536 56.16L25.92 56.256C26.368 56.256 26.816 56.192 27.264 56.064C27.776 55.936 28.064 56.064 28.128 56.448L28.8 55.968L29.28 56.064L29.088 56.832C29.088 57.088 29.12 57.216 29.184 57.216C29.312 57.216 29.472 56.992 29.664 56.544C29.92 56.16 30.048 56.128 30.048 56.448L30.72 55.68C30.912 55.808 31.168 55.872 31.488 55.872C32 55.872 32.48 55.68 32.928 55.296C33.376 54.976 33.92 54.752 34.56 54.624L34.656 54.816C34.784 54.752 34.912 54.688 35.04 54.624C35.232 54.624 35.328 54.688 35.328 54.816L36.384 54.72C36.64 54.528 37.056 54.304 37.632 54.048C38.272 53.792 38.72 53.6 38.976 53.472L39.072 53.088C39.072 53.088 39.232 53.088 39.552 53.088C39.936 53.024 40.16 52.96 40.224 52.896V52.8C40.224 52.672 40.224 52.48 40.224 52.224C40.224 51.904 40.352 51.776 40.608 51.84L41.088 52.128C41.664 51.936 42.048 51.68 42.24 51.36C42.496 50.976 42.88 50.624 43.392 50.304C43.584 50.176 43.744 50.016 43.872 49.824C44.064 49.632 44.288 49.504 44.544 49.44C44.608 49.44 44.704 49.536 44.832 49.728C45.024 49.92 45.216 49.888 45.408 49.632L45.504 48.672L46.368 48.384L46.848 47.712C46.848 47.712 46.848 47.744 46.848 47.808C46.912 47.808 46.976 47.808 47.04 47.808C47.296 47.808 47.584 47.552 47.904 47.04C48.224 46.528 48.288 46.176 48.096 45.984L49.056 44.928C48.992 44.544 49.12 44.064 49.44 43.488C49.824 42.912 50.016 42.208 50.016 41.376C50.016 40.864 49.856 40.256 49.536 39.552C49.216 38.848 48.576 38.08 47.616 37.248L47.136 36.96C46.368 36.448 45.664 36.064 45.024 35.808C44.448 35.488 43.68 35.168 42.72 34.848C42.72 34.848 42.624 34.784 42.432 34.656L39.744 33.888C39.488 33.696 38.912 33.536 38.016 33.408C37.12 33.28 36.512 33.184 36.192 33.12C36.064 33.056 35.904 32.96 35.712 32.832C35.584 32.704 35.456 32.736 35.328 32.928L34.464 32.448C34.336 32.512 34.176 32.544 33.984 32.544C33.856 32.544 33.728 32.512 33.6 32.448C33.536 32.384 33.344 32.352 33.024 32.352C32.576 32.288 31.84 32.096 30.816 31.776C29.856 31.456 29.312 31.36 29.184 31.488L26.688 30.24L26.4 30.336L25.536 29.856C25.728 30.112 25.6 30.176 25.152 30.048C24.704 29.856 24.192 29.632 23.616 29.376C23.04 29.056 22.592 28.864 22.272 28.8C21.184 28.352 20.192 27.712 19.296 26.88C18.464 26.048 18.048 25.024 18.048 23.808C18.048 22.72 18.112 21.952 18.24 21.504C18.368 21.056 18.528 20.672 18.72 20.352C18.976 20.032 19.2 19.552 19.392 18.912C19.52 18.72 19.68 18.528 19.872 18.336C20.128 18.08 20.288 17.824 20.352 17.568L21.12 17.088C21.184 16.768 21.344 16.448 21.6 16.128C21.92 15.808 22.208 15.584 22.464 15.456C23.296 15.072 24.224 14.432 25.248 13.536C26.336 12.576 27.392 11.872 28.416 11.424C28.672 11.296 28.896 11.2 29.088 11.136C29.28 11.008 29.504 10.912 29.76 10.848L29.856 11.04C30.432 10.848 31.392 10.56 32.736 10.176C34.08 9.728 35.552 9.28 37.152 8.832C38.816 8.384 40.352 8 41.76 7.68C43.232 7.36 44.384 7.2 45.216 7.2C45.792 7.2 46.112 7.296 46.176 7.488L47.328 6.816C47.392 6.88 47.52 6.944 47.712 7.008C47.904 7.008 48.032 6.976 48.096 6.912L49.056 7.2C49.312 7.072 49.504 7.008 49.632 7.008C50.016 7.008 50.432 7.136 50.88 7.392C51.392 7.584 51.776 7.648 52.032 7.584C52.352 7.456 52.576 7.424 52.704 7.488C52.896 7.488 53.088 7.488 53.28 7.488H53.664C53.856 7.488 54.048 7.52 54.24 7.584C54.496 7.584 54.752 7.712 55.008 7.968L55.488 8.064C55.68 8.256 55.776 8.48 55.776 8.736C55.904 8.992 56.288 9.152 56.928 9.216C57.568 9.28 57.984 9.408 58.176 9.6C58.688 9.984 58.976 10.624 59.04 11.52C59.168 12.352 59.232 13.12 59.232 13.824C59.168 14.528 58.88 15.392 58.368 16.416C57.92 17.376 57.344 18.144 56.64 18.72C56.32 18.976 55.84 19.264 55.2 19.584C54.56 19.84 54.08 20.064 53.76 20.256C53.056 20.704 52.288 20.928 51.456 20.928C50.24 20.928 49.632 20.672 49.632 20.16C49.632 19.968 49.856 19.776 50.304 19.584C50.624 19.456 50.912 19.328 51.168 19.2C51.488 19.008 51.776 18.784 52.032 18.528C52.288 18.4 52.448 18.336 52.512 18.336C52.64 18.272 52.736 18.208 52.8 18.144C52.928 18.08 53.024 18.016 53.088 17.952C53.152 17.824 53.28 17.696 53.472 17.568C53.856 17.248 54.336 16.736 54.912 16.032C55.552 15.264 56 14.688 56.256 14.304C56.32 13.984 56.448 13.568 56.64 13.056C56.896 12.48 57.024 11.968 57.024 11.52C57.024 11.136 56.928 10.848 56.736 10.656C56.672 10.656 56.64 10.624 56.64 10.56L56.544 10.368C56.032 9.28 55.008 8.672 53.472 8.544C52 8.352 50.752 8.256 49.728 8.256C49.728 8.256 49.664 8.224 49.536 8.16C49.408 8.096 49.344 8.128 49.344 8.256L47.232 8.448L47.04 8.256L45.024 8.64L44.832 8.544L42.72 9.12C42.784 8.992 42.752 8.96 42.624 9.024C42.496 9.024 42.432 9.024 42.432 9.024L40.32 9.6L40.224 9.504L39.264 10.08C39.264 10.016 39.232 9.952 39.168 9.888C39.104 9.824 39.072 9.792 39.072 9.792C39.008 9.856 38.944 9.952 38.88 10.08C38.816 10.144 38.72 10.208 38.592 10.272L38.4 10.176L37.056 10.656C37.056 10.72 36.928 10.752 36.672 10.752C34.944 11.52 33.056 12.416 31.008 13.44C29.024 14.4 27.488 15.776 26.4 17.568L26.208 17.376L25.344 18.144C25.28 18.208 25.184 18.304 25.056 18.432C24.992 18.56 24.896 18.784 24.768 19.104C24.576 19.616 24.288 20.224 23.904 20.928C23.584 21.632 23.424 22.304 23.424 22.944C23.424 23.584 23.552 24.192 23.808 24.768C24.064 25.28 24.256 25.408 24.384 25.152L25.248 25.728L25.536 26.784L25.728 26.688L26.976 27.648H27.168L28.704 28.896L29.856 29.568H30.624L31.776 29.952C31.904 30.016 32 30.112 32.064 30.24C32.192 30.304 32.352 30.24 32.544 30.048L33.504 30.72C33.568 30.656 33.664 30.624 33.792 30.624C33.92 30.624 34.048 30.688 34.176 30.816C34.304 30.88 34.4 30.944 34.464 31.008L34.656 30.912L38.016 32.256C38.144 32.192 38.304 32.16 38.496 32.16C38.816 32.16 39.072 32.224 39.264 32.352C39.52 32.416 39.776 32.48 40.032 32.544C40.16 32.608 40.32 32.704 40.512 32.832C40.768 32.96 40.896 33.056 40.896 33.12C41.024 33.184 41.152 33.216 41.28 33.216C41.472 33.216 41.632 33.216 41.76 33.216L42.624 33.504L43.488 33.984L44.352 34.08C44.352 34.08 44.608 34.208 45.12 34.464C45.696 34.656 46.272 34.848 46.848 35.04C47.488 35.232 47.84 35.36 47.904 35.424L48.48 36L48.576 35.904L49.248 36.288C49.952 36.736 50.656 37.6 51.36 38.88C52.128 40.096 52.512 41.44 52.512 42.912C52.512 43.872 52.352 44.832 52.032 45.792C51.776 46.688 51.456 47.424 51.072 48C50.112 49.28 49.056 50.432 47.904 51.456C46.816 52.48 45.824 53.344 44.928 54.048C44.608 54.24 44.384 54.4 44.256 54.528C44.128 54.656 43.936 54.72 43.68 54.72C43.488 54.784 43.328 54.88 43.2 55.008C42.304 55.52 41.312 55.968 40.224 56.352C39.136 56.8 38.176 57.216 37.344 57.6C36.96 57.728 36.64 57.792 36.384 57.792C36.128 57.856 35.872 57.92 35.616 57.984C35.552 57.984 35.424 58.016 35.232 58.08C35.104 58.208 35.04 58.24 35.04 58.176L34.368 58.656C34.304 58.592 34.208 58.56 34.08 58.56C33.824 58.56 33.536 58.688 33.216 58.944C32.96 59.2 32.704 59.296 32.448 59.232H32.352C32.16 59.232 31.904 59.264 31.584 59.328C31.328 59.456 31.136 59.456 31.008 59.328L29.76 59.808L29.568 59.328C29.504 59.328 29.408 59.392 29.28 59.52C29.216 59.712 29.12 59.808 28.992 59.808C28.992 59.808 28.864 59.744 28.608 59.616C28.352 59.488 28.16 59.552 28.032 59.808L26.976 60.096C26.912 59.84 26.72 59.712 26.4 59.712C26.144 59.712 25.92 59.808 25.728 60L24.96 59.616V59.712L24.192 59.616L23.424 60.096ZM73.05 53.472C72.666 53.472 72.474 53.248 72.474 52.8C72.474 52.48 72.57 52.096 72.762 51.648C73.274 50.56 73.85 49.024 74.49 47.04C75.194 45.056 76.058 43.36 77.082 41.952C77.786 40.544 78.426 39.168 79.002 37.824C79.642 36.416 80.25 35.008 80.826 33.6C80.826 33.6 80.762 33.568 80.634 33.504C80.506 33.376 80.442 33.248 80.442 33.12C80.122 32.864 79.738 32.512 79.29 32.064C78.842 31.552 78.81 31.04 79.194 30.528C79.322 30.4 79.386 30.336 79.386 30.336C79.45 30.336 79.482 30.336 79.482 30.336C79.482 30.272 79.45 30.24 79.386 30.24C79.386 30.24 79.386 30.208 79.386 30.144L79.29 30.048C79.226 30.048 79.162 30.048 79.098 30.048C79.098 29.984 79.066 29.952 79.002 29.952C78.746 29.952 78.458 30.016 78.138 30.144C77.818 30.208 77.498 30.24 77.178 30.24C76.794 30.24 76.282 30.4 75.642 30.72C75.002 30.976 74.426 31.2 73.914 31.392C73.658 31.456 73.498 31.488 73.434 31.488C73.434 31.424 73.306 31.456 73.05 31.584C72.986 31.648 72.986 31.552 73.05 31.296C73.178 30.976 73.242 30.752 73.242 30.624C73.242 30.56 73.21 30.528 73.146 30.528C73.018 30.528 72.762 30.72 72.378 31.104C71.994 31.424 71.738 31.616 71.61 31.68C71.546 31.744 71.514 31.84 71.514 31.968C71.578 32.096 71.61 32.224 71.61 32.352C71.61 32.544 71.45 32.768 71.13 33.024C70.81 33.216 70.586 33.376 70.458 33.504C70.202 33.696 69.882 33.824 69.498 33.888C69.178 33.888 68.858 34.016 68.538 34.272C68.154 34.528 67.962 34.72 67.962 34.848C68.026 34.976 67.834 35.2 67.386 35.52C66.81 35.968 66.01 36.64 64.986 37.536C64.026 38.432 63.29 39.232 62.778 39.936C61.562 41.408 60.442 43.104 59.418 45.024C58.458 46.944 57.978 48.448 57.978 49.536C57.978 50.368 58.33 50.784 59.034 50.784C59.162 50.784 59.29 50.784 59.418 50.784C59.546 50.72 59.706 50.656 59.898 50.592L62.394 49.152L62.97 49.056V48.96L63.354 49.248C63.418 49.184 63.386 49.088 63.258 48.96C63.194 48.768 63.194 48.672 63.258 48.672C63.322 48.672 63.354 48.704 63.354 48.768C63.418 48.768 63.482 48.768 63.546 48.768L63.738 48.48C63.738 48.48 63.834 48.512 64.026 48.576C64.282 48.576 64.474 48.512 64.602 48.384C64.794 48.32 64.826 48.224 64.698 48.096C64.634 47.968 64.538 47.872 64.41 47.808L65.082 47.232C65.146 47.104 65.402 46.976 65.85 46.848C66.938 46.144 67.834 45.312 68.538 44.352C69.306 43.328 70.17 42.4 71.13 41.568H71.226L72.378 40.416L72.282 40.128L73.53 38.688H73.722C73.786 38.56 73.914 38.4 74.106 38.208C74.362 38.016 74.522 37.856 74.586 37.728C74.714 37.664 75.002 37.344 75.45 36.768C75.962 36.128 76.442 35.616 76.89 35.232C77.402 34.848 77.69 34.656 77.754 34.656C77.818 34.656 77.85 34.688 77.85 34.752C77.85 34.944 77.754 35.232 77.562 35.616C77.434 36 77.306 36.256 77.178 36.384C76.73 37.088 76.154 37.888 75.45 38.784C74.746 39.616 74.33 40.128 74.202 40.32C73.434 41.152 72.506 42.272 71.418 43.68C70.33 45.024 69.146 46.368 67.866 47.712C66.586 49.056 65.306 50.208 64.026 51.168C62.81 52.064 61.658 52.512 60.57 52.512C59.546 52.512 58.458 52.192 57.306 51.552C56.154 50.912 55.578 49.696 55.578 47.904C55.578 47.328 55.642 46.688 55.77 45.984C55.962 45.216 56.25 44.416 56.634 43.584C56.634 43.584 56.698 43.52 56.826 43.392C56.954 43.2 57.05 43.136 57.114 43.2C57.242 43.008 57.274 42.816 57.21 42.624C57.21 42.368 57.21 42.208 57.21 42.144L57.402 41.952C57.53 41.248 58.01 40.608 58.842 40.032C59.674 39.456 60.122 39.008 60.186 38.688C60.25 38.624 60.282 38.528 60.282 38.4L60.666 37.152V36.768H61.05L61.338 36.384L61.434 36.192C61.306 36.128 61.338 36.032 61.53 35.904C61.786 35.712 61.914 35.616 61.914 35.616C61.978 35.488 62.042 35.392 62.106 35.328C62.234 35.264 62.33 35.2 62.394 35.136H63.066C63.194 34.944 63.13 34.848 62.874 34.848C62.618 34.848 62.49 34.848 62.49 34.848C62.49 34.784 62.49 34.752 62.49 34.752C62.554 34.688 62.586 34.624 62.586 34.56L63.642 33.696C63.962 33.44 64.282 33.216 64.602 33.024C64.922 32.832 65.21 32.608 65.466 32.352C65.658 32.352 65.69 32.448 65.562 32.64C65.626 32.768 65.69 32.768 65.754 32.64C65.882 32.512 65.946 32.448 65.946 32.448L66.426 32.352V32.256C66.426 32.128 66.458 31.936 66.522 31.68C66.586 31.424 66.618 31.264 66.618 31.2C67.962 30.176 69.37 29.28 70.842 28.512C72.314 27.68 73.754 27.264 75.162 27.264C76.826 27.264 78.33 27.904 79.674 29.184L80.154 29.472C80.218 29.472 80.25 29.44 80.25 29.376C80.378 28.48 81.114 27.808 82.458 27.36C83.866 26.912 85.114 26.688 86.202 26.688C87.354 26.688 87.93 26.848 87.93 27.168C87.93 27.296 87.738 27.52 87.354 27.84C87.162 27.968 86.842 28.256 86.394 28.704C85.946 29.152 85.498 29.696 85.05 30.336C84.986 30.528 84.89 30.72 84.762 30.912C84.634 31.104 84.506 31.296 84.378 31.488C84.314 31.616 84.218 31.776 84.09 31.968C84.026 32.096 83.93 32.224 83.802 32.352C82.714 34.208 81.85 35.776 81.21 37.056C80.57 38.336 79.802 39.968 78.906 41.952C78.778 42.336 78.714 42.56 78.714 42.624C78.714 43.136 79.002 43.392 79.578 43.392C79.962 43.392 80.346 43.296 80.73 43.104L81.69 42.72C83.226 41.312 84.826 40.128 86.49 39.168C86.554 39.168 86.586 39.168 86.586 39.168C86.65 39.104 86.714 39.072 86.778 39.072C86.97 39.072 87.098 39.2 87.162 39.456C87.226 39.648 87.162 39.808 86.97 39.936C85.114 40.96 83.386 42.272 81.786 43.872C81.722 44 81.658 44.128 81.594 44.256C81.53 44.384 81.434 44.512 81.306 44.64C81.114 44.768 80.922 44.992 80.73 45.312C80.538 45.632 80.442 45.824 80.442 45.888C80.378 46.08 80.282 46.144 80.154 46.08C80.09 46.016 79.898 46.112 79.578 46.368C79.514 46.432 79.45 46.56 79.386 46.752C79.386 46.944 79.354 47.104 79.29 47.232C79.162 47.424 79.034 47.584 78.906 47.712C78.778 47.776 78.714 47.84 78.714 47.904C78.65 48.16 78.522 48.32 78.33 48.384C78.202 48.384 78.074 48.448 77.946 48.576C77.882 48.576 77.85 48.608 77.85 48.672C77.85 49.248 77.786 49.504 77.658 49.44C77.53 49.376 77.402 49.44 77.274 49.632C77.146 49.888 76.986 50.016 76.794 50.016C76.41 50.144 76.25 50.24 76.314 50.304C76.442 50.368 76.538 50.432 76.602 50.496C76.73 50.496 76.634 50.592 76.314 50.784C76.186 50.848 76.058 51.04 75.93 51.36C75.802 51.616 75.674 51.808 75.546 51.936C75.354 52.064 75.162 52.16 74.97 52.224C74.778 52.288 74.618 52.416 74.49 52.608C73.914 53.184 73.434 53.472 73.05 53.472ZM91.6215 54.816C90.0855 55.008 88.9975 54.784 88.3575 54.144C87.7175 53.504 87.1415 52.864 86.6295 52.224C86.5655 52.032 86.3735 52.032 86.0535 52.224C85.7975 52.352 85.6055 52.32 85.4775 52.128C85.3495 51.872 85.1895 51.456 84.9975 50.88C84.8055 50.24 84.7735 49.664 84.9015 49.152C85.0295 48.896 85.2855 48.576 85.6695 48.192C86.0535 47.808 86.3095 47.52 86.4375 47.328C86.5015 47.328 86.7575 47.136 87.2055 46.752C87.7175 46.304 88.1655 45.824 88.5495 45.312C88.8055 44.16 89.0615 43.04 89.3175 41.952C89.6375 40.8 90.1175 39.52 90.7575 38.112V37.632C90.7575 37.44 90.7575 37.248 90.7575 37.056C90.8215 36.864 90.8855 36.672 90.9495 36.48C91.2055 35.968 91.4295 35.648 91.6215 35.52C91.8775 35.328 92.1015 34.944 92.2935 34.368C92.4855 33.856 92.6455 33.28 92.7735 32.64C92.9655 32 93.1895 31.584 93.4455 31.392C93.5095 31.392 93.5415 31.392 93.5415 31.392C93.5415 31.328 93.5735 31.296 93.6375 31.296C93.7655 31.296 93.8935 31.392 94.0215 31.584C94.1495 31.712 94.2455 31.456 94.3095 30.816L94.2135 30.72C94.2135 30.592 94.2455 30.432 94.3095 30.24C94.4375 30.048 94.4695 29.92 94.4055 29.856V29.568C94.4055 29.184 94.5335 28.832 94.7895 28.512C95.1095 28.128 95.3975 27.712 95.6535 27.264C95.7815 27.072 96.0375 26.976 96.4215 26.976C96.8055 26.912 96.9655 26.816 96.9015 26.688L96.6135 25.344C96.7415 24.832 96.9975 24.544 97.3815 24.48H97.6695C97.8615 23.648 98.0215 23.04 98.1495 22.656C98.3415 22.272 98.5655 21.952 98.8215 21.696L99.5895 20.928C100.038 20.48 100.358 20.064 100.55 19.68C100.806 19.296 101.062 18.848 101.318 18.336C101.446 18.08 101.606 17.856 101.798 17.664C102.054 17.472 102.278 17.248 102.47 16.992C102.598 16.864 102.63 16.672 102.566 16.416C102.566 16.16 102.598 15.968 102.662 15.84C103.174 15.072 103.782 14.304 104.486 13.536C105.19 12.704 105.862 11.968 106.502 11.328C106.694 11.008 106.886 10.688 107.078 10.368C107.334 10.048 107.59 9.728 107.846 9.408C108.23 8.96 108.646 8.64 109.094 8.448C109.542 8.256 109.99 7.968 110.438 7.584C110.566 7.456 110.63 7.264 110.63 7.008C110.63 6.688 110.694 6.464 110.822 6.336C113.062 4.544 115.462 3.04 118.022 1.824C120.646 0.607998 122.662 -1.90735e-06 124.07 -1.90735e-06C124.582 -1.90735e-06 125.062 0.0319977 125.51 0.0959969C126.022 0.159996 126.502 0.255997 126.95 0.383999H127.142C127.462 0.383999 127.782 0.447998 128.102 0.575996C128.422 0.703999 128.71 0.831999 128.966 0.959997C129.222 0.959997 129.542 1.024 129.926 1.15199C130.246 1.28 130.438 1.472 130.502 1.728C130.566 1.984 130.502 2.176 130.31 2.304C130.246 2.368 130.15 2.368 130.022 2.304C129.894 2.24 129.766 2.208 129.638 2.208C129.51 2.208 129.382 2.144 129.254 2.016C129.126 1.888 128.998 1.792 128.87 1.728C128.614 1.728 128.358 1.76 128.102 1.824C127.91 1.888 127.686 1.92 127.43 1.92C126.726 1.92 126.278 1.856 126.086 1.728C125.894 1.536 125.51 1.504 124.934 1.632C124.87 1.632 124.678 1.664 124.358 1.728C124.038 1.792 123.814 1.824 123.686 1.824C121.382 2.4 119.366 3.36 117.638 4.704C115.91 5.984 114.374 7.424 113.03 9.024C111.75 10.624 110.502 12.16 109.286 13.632C108.71 14.784 108.134 15.712 107.558 16.416C107.494 16.48 107.43 16.448 107.366 16.32C107.302 16.192 107.238 16.192 107.174 16.32C106.982 16.512 106.822 16.832 106.694 17.28C106.63 17.664 106.502 17.984 106.31 18.24C106.246 18.304 106.182 18.304 106.118 18.24C106.118 18.176 106.054 18.144 105.926 18.144C105.734 18.144 105.702 18.272 105.83 18.528C106.022 18.72 106.054 18.88 105.926 19.008C105.158 20.096 104.198 21.216 103.046 22.368C101.958 23.52 100.966 24.736 100.07 26.016C99.0455 27.616 98.0535 29.184 97.0935 30.72C96.1335 32.192 95.2055 33.664 94.3095 35.136C94.2455 35.2 94.1495 35.296 94.0215 35.424C93.8935 35.488 93.7975 35.584 93.7335 35.712C93.6695 35.776 93.6695 35.872 93.7335 36C93.7975 36.064 93.7975 36.16 93.7335 36.288C93.0935 37.312 92.6455 38.144 92.3895 38.784C92.1335 39.36 91.8455 39.968 91.5255 40.608C91.3975 40.928 91.2695 41.344 91.1415 41.856C91.0775 42.368 90.9815 42.752 90.8535 43.008C91.0455 42.752 91.6535 42.112 92.6775 41.088C93.7655 40 95.0455 38.72 96.5175 37.248C98.0535 35.776 99.5575 34.336 101.03 32.928C101.222 32.736 101.414 32.48 101.606 32.16C101.798 31.84 101.99 31.616 102.182 31.488C102.63 31.04 103.11 30.688 103.622 30.432C104.134 30.112 104.614 29.76 105.062 29.376C105.382 29.12 105.67 28.96 105.926 28.896C106.246 28.832 106.534 28.704 106.79 28.512C106.918 28.448 106.95 28.384 106.886 28.32C106.822 28.192 106.854 28.096 106.982 28.032C107.686 27.648 108.07 27.424 108.134 27.36C108.198 27.296 108.454 27.2 108.902 27.072C109.606 26.816 110.406 26.688 111.302 26.688C111.878 26.688 112.23 26.72 112.358 26.784C112.678 26.976 113.03 27.136 113.414 27.264C113.798 27.392 113.99 27.776 113.99 28.416C113.99 28.736 114.022 28.928 114.086 28.992C114.15 28.992 114.182 29.216 114.182 29.664C114.182 29.984 114.118 30.496 113.99 31.2C113.926 31.904 113.862 32.448 113.798 32.832L113.414 35.232C113.35 35.424 113.35 35.616 113.414 35.808C113.478 36 113.478 36.192 113.414 36.384C113.35 36.448 113.254 36.544 113.126 36.672C112.998 36.8 112.902 36.928 112.838 37.056C112.39 37.12 112.07 37.344 111.878 37.728C111.75 38.048 111.91 38.176 112.358 38.112C112.294 38.176 112.166 38.272 111.974 38.4C111.846 38.528 111.75 38.656 111.686 38.784C111.622 38.848 111.654 38.912 111.782 38.976C111.91 38.976 111.846 39.2 111.59 39.648C111.398 39.968 111.206 40.384 111.014 40.896C110.822 41.408 110.63 41.824 110.438 42.144C110.246 42.4 110.054 42.56 109.862 42.624C109.734 42.688 109.574 42.848 109.382 43.104C109.318 43.232 109.286 43.36 109.286 43.488C109.286 43.616 109.222 43.744 109.094 43.872C109.03 44 108.902 44.096 108.71 44.16C108.582 44.224 108.454 44.32 108.326 44.448C106.278 46.88 103.782 49.088 100.838 51.072C97.9575 53.056 94.8855 54.304 91.6215 54.816ZM91.9095 52.992C92.4855 52.992 93.3175 52.864 94.4055 52.608C95.4935 52.288 96.4855 51.872 97.3815 51.36C97.7015 51.232 97.9895 51.072 98.2455 50.88C98.5655 50.624 98.8535 50.368 99.1095 50.112C99.3655 49.856 99.5255 49.6 99.5895 49.344C99.8455 48.96 100.23 48.544 100.742 48.096L101.222 47.808C101.478 47.552 101.734 47.104 101.99 46.464H102.182C102.438 46.4 102.598 46.272 102.662 46.08L103.142 45.888C103.142 45.696 103.206 45.536 103.334 45.408C103.462 45.152 103.686 44.864 104.006 44.544C104.326 44.16 104.486 43.84 104.486 43.584C104.486 43.52 104.422 43.424 104.294 43.296C104.358 43.168 104.486 42.944 104.678 42.624C104.934 42.24 105.094 41.984 105.158 41.856L105.734 41.76L106.022 41.184V40.992C106.854 40.992 107.206 40.672 107.078 40.032L107.75 38.208C107.878 37.696 108.07 37.344 108.326 37.152C108.326 36.896 108.358 36.736 108.422 36.672C108.486 36.608 108.55 36.48 108.614 36.288C108.806 35.776 108.998 35.104 109.19 34.272C109.446 33.44 109.574 33.024 109.574 33.024L109.286 32.448C109.286 32.32 109.19 32.128 108.998 31.872C108.87 31.616 108.838 31.392 108.902 31.2C109.03 30.752 109.254 30.464 109.574 30.336C109.958 30.208 110.022 30.112 109.766 30.048H109.67C109.478 30.048 109.254 30.08 108.998 30.144C108.806 30.208 108.55 30.304 108.23 30.432C107.846 30.56 107.494 30.592 107.174 30.528C106.854 30.464 106.598 30.496 106.406 30.624C105.766 30.816 105.094 31.136 104.39 31.584C103.686 31.968 102.918 32.512 102.086 33.216C102.022 33.28 101.926 33.408 101.798 33.6C101.67 33.792 101.542 33.952 101.414 34.08C101.35 34.144 101.222 34.176 101.03 34.176C100.902 34.176 100.774 34.24 100.646 34.368C100.582 34.432 100.582 34.528 100.646 34.656C100.71 34.784 100.71 34.912 100.646 35.04C100.518 35.104 100.39 35.168 100.262 35.232C100.134 35.296 100.006 35.392 99.8775 35.52L99.5895 36C98.5015 37.216 97.1575 38.56 95.5575 40.032C94.0215 41.504 92.7095 42.944 91.6215 44.352L105.446 39.072C105.83 38.88 106.182 38.784 106.502 38.784C106.63 38.72 106.79 38.784 106.982 38.976C107.046 39.104 106.982 39.232 106.79 39.36C106.662 39.488 106.566 39.52 106.502 39.456L106.022 39.36C105.958 39.424 105.83 39.52 105.638 39.648C105.51 39.776 105.382 39.84 105.254 39.84C104.998 39.968 104.838 40.032 104.774 40.032C104.71 40.096 104.582 40.128 104.39 40.128C104.198 40.128 104.07 40.16 104.006 40.224C103.878 40.288 103.782 40.352 103.718 40.416C103.654 40.416 103.558 40.48 103.43 40.608C101.958 41.248 100.358 41.984 98.6295 42.816C96.9015 43.584 95.3015 44.352 93.8295 45.12C91.9735 46.144 90.6935 47.136 89.9895 48.096C89.2855 48.992 88.9335 49.792 88.9335 50.496C88.9335 51.072 89.0935 51.584 89.4135 52.032C89.7335 52.416 90.1175 52.672 90.5655 52.8C91.0135 52.928 91.4615 52.992 91.9095 52.992ZM132.769 53.472C132.385 53.472 132.193 53.248 132.193 52.8C132.193 52.48 132.289 52.096 132.481 51.648C132.993 50.56 133.569 49.024 134.209 47.04C134.913 45.056 135.777 43.36 136.801 41.952C137.505 40.544 138.145 39.168 138.721 37.824C139.361 36.416 139.969 35.008 140.545 33.6C140.545 33.6 140.481 33.568 140.353 33.504C140.225 33.376 140.161 33.248 140.161 33.12C139.841 32.864 139.457 32.512 139.009 32.064C138.561 31.552 138.529 31.04 138.913 30.528C139.041 30.4 139.105 30.336 139.105 30.336C139.169 30.336 139.201 30.336 139.201 30.336C139.201 30.272 139.169 30.24 139.105 30.24C139.105 30.24 139.105 30.208 139.105 30.144L139.009 30.048C138.945 30.048 138.881 30.048 138.817 30.048C138.817 29.984 138.785 29.952 138.721 29.952C138.465 29.952 138.177 30.016 137.857 30.144C137.537 30.208 137.217 30.24 136.897 30.24C136.513 30.24 136.001 30.4 135.361 30.72C134.721 30.976 134.145 31.2 133.633 31.392C133.377 31.456 133.217 31.488 133.153 31.488C133.153 31.424 133.025 31.456 132.769 31.584C132.705 31.648 132.705 31.552 132.769 31.296C132.897 30.976 132.961 30.752 132.961 30.624C132.961 30.56 132.929 30.528 132.865 30.528C132.737 30.528 132.481 30.72 132.097 31.104C131.713 31.424 131.457 31.616 131.329 31.68C131.265 31.744 131.233 31.84 131.233 31.968C131.297 32.096 131.329 32.224 131.329 32.352C131.329 32.544 131.169 32.768 130.849 33.024C130.529 33.216 130.305 33.376 130.177 33.504C129.921 33.696 129.601 33.824 129.217 33.888C128.897 33.888 128.577 34.016 128.257 34.272C127.873 34.528 127.681 34.72 127.681 34.848C127.745 34.976 127.553 35.2 127.105 35.52C126.529 35.968 125.729 36.64 124.705 37.536C123.745 38.432 123.009 39.232 122.497 39.936C121.281 41.408 120.161 43.104 119.137 45.024C118.177 46.944 117.697 48.448 117.697 49.536C117.697 50.368 118.049 50.784 118.753 50.784C118.881 50.784 119.009 50.784 119.137 50.784C119.265 50.72 119.425 50.656 119.617 50.592L122.113 49.152L122.689 49.056V48.96L123.073 49.248C123.137 49.184 123.105 49.088 122.977 48.96C122.913 48.768 122.913 48.672 122.977 48.672C123.041 48.672 123.073 48.704 123.073 48.768C123.137 48.768 123.201 48.768 123.265 48.768L123.457 48.48C123.457 48.48 123.553 48.512 123.745 48.576C124.001 48.576 124.193 48.512 124.321 48.384C124.513 48.32 124.545 48.224 124.417 48.096C124.353 47.968 124.257 47.872 124.129 47.808L124.801 47.232C124.865 47.104 125.121 46.976 125.569 46.848C126.657 46.144 127.553 45.312 128.257 44.352C129.025 43.328 129.889 42.4 130.849 41.568H130.945L132.097 40.416L132.001 40.128L133.249 38.688H133.441C133.505 38.56 133.633 38.4 133.825 38.208C134.081 38.016 134.241 37.856 134.305 37.728C134.433 37.664 134.721 37.344 135.169 36.768C135.681 36.128 136.161 35.616 136.609 35.232C137.121 34.848 137.409 34.656 137.473 34.656C137.537 34.656 137.569 34.688 137.569 34.752C137.569 34.944 137.473 35.232 137.281 35.616C137.153 36 137.025 36.256 136.897 36.384C136.449 37.088 135.873 37.888 135.169 38.784C134.465 39.616 134.049 40.128 133.921 40.32C133.153 41.152 132.225 42.272 131.137 43.68C130.049 45.024 128.865 46.368 127.585 47.712C126.305 49.056 125.025 50.208 123.745 51.168C122.529 52.064 121.377 52.512 120.289 52.512C119.265 52.512 118.177 52.192 117.025 51.552C115.873 50.912 115.297 49.696 115.297 47.904C115.297 47.328 115.361 46.688 115.489 45.984C115.681 45.216 115.969 44.416 116.353 43.584C116.353 43.584 116.417 43.52 116.545 43.392C116.673 43.2 116.769 43.136 116.833 43.2C116.961 43.008 116.993 42.816 116.929 42.624C116.929 42.368 116.929 42.208 116.929 42.144L117.121 41.952C117.249 41.248 117.729 40.608 118.561 40.032C119.393 39.456 119.841 39.008 119.905 38.688C119.969 38.624 120.001 38.528 120.001 38.4L120.385 37.152V36.768H120.769L121.057 36.384L121.153 36.192C121.025 36.128 121.057 36.032 121.249 35.904C121.505 35.712 121.633 35.616 121.633 35.616C121.697 35.488 121.761 35.392 121.825 35.328C121.953 35.264 122.049 35.2 122.113 35.136H122.785C122.913 34.944 122.849 34.848 122.593 34.848C122.337 34.848 122.209 34.848 122.209 34.848C122.209 34.784 122.209 34.752 122.209 34.752C122.273 34.688 122.305 34.624 122.305 34.56L123.361 33.696C123.681 33.44 124.001 33.216 124.321 33.024C124.641 32.832 124.929 32.608 125.185 32.352C125.377 32.352 125.409 32.448 125.281 32.64C125.345 32.768 125.409 32.768 125.473 32.64C125.601 32.512 125.665 32.448 125.665 32.448L126.145 32.352V32.256C126.145 32.128 126.177 31.936 126.241 31.68C126.305 31.424 126.337 31.264 126.337 31.2C127.681 30.176 129.089 29.28 130.561 28.512C132.033 27.68 133.473 27.264 134.881 27.264C136.545 27.264 138.049 27.904 139.393 29.184L139.873 29.472C139.937 29.472 139.969 29.44 139.969 29.376C140.097 28.48 140.833 27.808 142.177 27.36C143.585 26.912 144.833 26.688 145.921 26.688C147.073 26.688 147.649 26.848 147.649 27.168C147.649 27.296 147.457 27.52 147.073 27.84C146.881 27.968 146.561 28.256 146.113 28.704C145.665 29.152 145.217 29.696 144.769 30.336C144.705 30.528 144.609 30.72 144.481 30.912C144.353 31.104 144.225 31.296 144.097 31.488C144.033 31.616 143.937 31.776 143.809 31.968C143.745 32.096 143.649 32.224 143.521 32.352C142.433 34.208 141.569 35.776 140.929 37.056C140.289 38.336 139.521 39.968 138.625 41.952C138.497 42.336 138.433 42.56 138.433 42.624C138.433 43.136 138.721 43.392 139.297 43.392C139.681 43.392 140.065 43.296 140.449 43.104L141.409 42.72C142.945 41.312 144.545 40.128 146.209 39.168C146.273 39.168 146.305 39.168 146.305 39.168C146.369 39.104 146.433 39.072 146.497 39.072C146.689 39.072 146.817 39.2 146.881 39.456C146.945 39.648 146.881 39.808 146.689 39.936C144.833 40.96 143.105 42.272 141.505 43.872C141.441 44 141.377 44.128 141.313 44.256C141.249 44.384 141.153 44.512 141.025 44.64C140.833 44.768 140.641 44.992 140.449 45.312C140.257 45.632 140.161 45.824 140.161 45.888C140.097 46.08 140.001 46.144 139.873 46.08C139.809 46.016 139.617 46.112 139.297 46.368C139.233 46.432 139.169 46.56 139.105 46.752C139.105 46.944 139.073 47.104 139.009 47.232C138.881 47.424 138.753 47.584 138.625 47.712C138.497 47.776 138.433 47.84 138.433 47.904C138.369 48.16 138.241 48.32 138.049 48.384C137.921 48.384 137.793 48.448 137.665 48.576C137.601 48.576 137.569 48.608 137.569 48.672C137.569 49.248 137.505 49.504 137.377 49.44C137.249 49.376 137.121 49.44 136.993 49.632C136.865 49.888 136.705 50.016 136.513 50.016C136.129 50.144 135.969 50.24 136.033 50.304C136.161 50.368 136.257 50.432 136.321 50.496C136.449 50.496 136.353 50.592 136.033 50.784C135.905 50.848 135.777 51.04 135.649 51.36C135.521 51.616 135.393 51.808 135.265 51.936C135.073 52.064 134.881 52.16 134.689 52.224C134.497 52.288 134.337 52.416 134.209 52.608C133.633 53.184 133.153 53.472 132.769 53.472Z" fill="#780A06"/>
</svg>
