<svg width="116" height="111" viewBox="0 0 116 111" fill="none" xmlns="http://www.w3.org/2000/svg">
<path d="M57.5 17C47.2915 17 37.492 21.0587 30.2793 28.2763C23.0592 35.4967 19.0021 45.289 19 55.5C19 65.7067 23.0605 75.5062 30.2793 82.7237C37.492 89.9413 47.2915 94 57.5 94C67.7085 94 77.508 89.9413 84.7207 82.7237C91.9395 75.5062 96 65.7067 96 55.5C96 45.2933 91.9395 35.4938 84.7207 28.2763C77.508 21.0587 67.7085 17 57.5 17Z" fill="url(#paint0_linear_2_968)"/>
<path d="M36.4273 55.0931C47.6524 50.2036 55.1359 46.9801 58.8776 45.4224C69.5734 40.9751 71.7931 40.2027 73.2429 40.1765C73.5617 40.1714 74.2716 40.2502 74.7348 40.6247C75.1198 40.9405 75.228 41.3676 75.2822 41.6675C75.3303 41.967 75.3965 42.6498 75.3423 43.1828C74.7648 49.2706 72.2563 64.0438 70.981 70.8625C70.4456 73.7476 69.3809 74.7149 68.3522 74.8094C66.1144 75.0151 64.418 73.3319 62.2523 71.9128C58.8655 69.6913 56.9526 68.3089 53.662 66.1414C49.8602 63.6365 52.3266 62.2596 54.4922 60.0097C55.0577 59.4208 64.9112 50.4605 65.0977 49.6478C65.1218 49.5461 65.1459 49.1671 64.9173 48.9674C64.6947 48.7671 64.3638 48.8357 64.1232 48.8898C63.7803 48.9668 58.3723 52.5449 47.881 59.6235C46.347 60.6787 44.9574 61.193 43.7062 61.1659C42.3346 61.1364 39.6877 60.3887 37.7206 59.7498C35.3144 58.966 33.3954 58.5515 33.5638 57.2203C33.648 56.5273 34.6045 55.818 36.4273 55.0931Z" fill="white"/>
<defs>
<linearGradient id="paint0_linear_2_968" x1="3869" y1="17" x2="3869" y2="7717" gradientUnits="userSpaceOnUse">
<stop stop-color="#2AABEE"/>
<stop offset="1" stop-color="#229ED9"/>
</linearGradient>
</defs>
</svg>
