<svg width="135" height="103" viewBox="0 0 135 103" fill="none" xmlns="http://www.w3.org/2000/svg">
<g clip-path="url(#clip0_2_964)">
<path d="M87.2875 32.7665C93.1244 36.9541 100.275 39.418 107.998 39.418V24.5034C106.536 24.504 105.078 24.3509 103.648 24.0466V35.7865C95.9263 35.7865 88.7766 33.3229 82.9384 29.1356V59.5723C82.9384 74.7985 70.6397 87.1406 55.4697 87.1406C49.8094 87.1406 44.5481 85.4232 40.1778 82.4777C45.166 87.5966 52.1222 90.7718 59.8178 90.7718C74.9891 90.7718 87.2881 78.4297 87.2881 63.2029V32.7665H87.2875ZM92.6531 17.7195C89.67 14.4489 87.7113 10.2221 87.2875 5.54908V3.63086H83.166C84.2035 9.57002 87.7425 14.6441 92.6531 17.7195ZM49.7728 70.7939C48.1061 68.601 47.2052 65.9179 47.2094 63.1593C47.2094 56.1956 52.8347 50.5492 59.775 50.5492C61.0682 50.5485 62.3538 50.7478 63.5866 51.1401V35.8919C62.146 35.6939 60.6922 35.6095 59.2391 35.6406V47.5089C58.0057 47.1165 56.7194 46.9173 55.4256 46.9183C48.4856 46.9183 42.8606 52.5641 42.8606 59.5287C42.8606 64.4534 45.6722 68.7169 49.7728 70.7939Z" fill="#FF004F"/>
<path d="M82.9384 29.1353C88.7769 33.3226 95.9259 35.7862 103.648 35.7862V24.0462C99.3378 23.1246 95.5219 20.8641 92.6528 17.7195C87.7419 14.6437 84.2034 9.56971 83.1659 3.63086H72.34V63.2023C72.3153 70.1471 66.6997 75.7703 59.7744 75.7703C55.6937 75.7703 52.0681 73.8182 49.7722 70.7936C45.6722 68.7169 42.8603 64.4531 42.8603 59.529C42.8603 52.565 48.4853 46.9186 55.4253 46.9186C56.755 46.9186 58.0366 47.1263 59.2387 47.5092V35.6409C44.335 35.95 32.3491 48.1716 32.3491 63.2026C32.3491 70.706 35.3337 77.5081 40.1781 82.4783C44.5484 85.4232 49.8094 87.1412 55.47 87.1412C70.6403 87.1412 82.9387 74.7982 82.9387 59.5723L82.9384 29.1353Z" fill="black"/>
<path d="M103.648 24.046V20.8723C99.7613 20.8779 95.9509 19.7854 92.6528 17.7196C95.5722 20.9272 99.4164 23.1392 103.648 24.0466M83.1656 3.63059C83.0668 3.06311 82.9909 2.49186 82.9381 1.91822V0H67.99V59.5721C67.9663 66.5163 62.3506 72.1395 55.425 72.1395C53.4616 72.1424 51.5251 71.6816 49.7719 70.7942C52.0678 73.8183 55.6934 75.7701 59.7741 75.7701C66.6991 75.7701 72.3153 70.1475 72.3397 63.2026V3.6309L83.1656 3.63059ZM59.2394 35.6406V32.2614C57.9903 32.0901 56.731 32.0044 55.4703 32.0047C40.2984 32.0047 28 44.3474 28 59.5721C28 69.1173 32.8334 77.5295 40.1784 82.4777C35.3341 77.5078 32.3494 70.7054 32.3494 63.2023C32.3494 48.1716 44.335 35.9497 59.2394 35.6406Z" fill="#00F2EA"/>
</g>
<defs>
<clipPath id="clip0_2_964">
<rect width="135" height="103" fill="white"/>
</clipPath>
</defs>
</svg>
